<svg width="24" height="24" viewBox="0 0 24 24" fill="none" xmlns="http://www.w3.org/2000/svg">
<path d="M10.9367 1.42894C11.3725 0.251076 13.0385 0.251078 13.4743 1.42894L15.8264 7.78528C15.9634 8.1556 16.2554 8.44757 16.6257 8.5846L22.982 10.9367C24.1599 11.3725 24.1599 13.0385 22.982 13.4743L16.6257 15.8264C16.2554 15.9634 15.9634 16.2554 15.8264 16.6257L13.4743 22.982C13.0385 24.1599 11.3725 24.1599 10.9367 22.982L8.5846 16.6257C8.44757 16.2554 8.1556 15.9634 7.78528 15.8264L1.42894 13.4743C0.251076 13.0385 0.251078 11.3725 1.42894 10.9367L7.78528 8.5846C8.1556 8.44757 8.44757 8.1556 8.5846 7.78528L10.9367 1.42894Z" fill="#F8F9FF"/>
</svg>
